<svg 
 xmlns="http://www.w3.org/2000/svg"
 xmlns:xlink="http://www.w3.org/1999/xlink"
 width="16px" height="16px">
<path fill-rule="evenodd"  fill="rgb(246, 128, 56)"
 d="M10.813,7.948 L15.682,12.817 C15.998,13.133 15.998,13.646 15.682,13.963 L13.963,15.681 C13.647,15.997 13.134,15.997 12.817,15.681 L7.949,10.812 L3.080,15.681 C2.763,15.997 2.250,15.997 1.934,15.681 L0.215,13.963 C-0.101,13.646 -0.101,13.133 0.215,12.817 L5.084,7.948 L0.215,3.079 C-0.101,2.763 -0.101,2.250 0.215,1.934 L1.934,0.215 C2.250,-0.101 2.763,-0.101 3.080,0.215 L7.949,5.084 L12.817,0.215 C13.134,-0.101 13.647,-0.101 13.963,0.215 L15.682,1.934 C15.998,2.250 15.998,2.763 15.682,3.079 L10.813,7.948 Z"/>
</svg> 
