<svg 
 xmlns="http://www.w3.org/2000/svg"
 xmlns:xlink="http://www.w3.org/1999/xlink"
 width="20px" height="23px">
<path fill-rule="evenodd"  fill="rgb(136, 136, 136)"
 d="M0.631,4.759 C0.631,4.759 0.631,4.179 0.631,3.464 C0.631,2.749 1.211,2.170 1.926,2.170 L18.321,2.170 C19.036,2.170 19.615,2.749 19.615,3.464 C19.615,4.179 19.615,4.759 19.615,4.759 L0.631,4.759 ZM8.397,0.444 L11.849,0.444 C12.325,0.444 12.712,2.170 12.712,2.170 L7.534,2.170 C7.534,2.170 7.921,0.444 8.397,0.444 ZM17.026,19.428 C17.026,20.858 15.867,22.017 14.437,22.017 L5.808,22.017 C4.379,22.017 3.220,20.858 3.220,19.428 L1.494,5.622 L18.752,5.622 L17.026,19.428 ZM7.534,8.210 L5.808,8.210 L5.808,19.428 L7.534,19.428 L7.534,8.210 ZM10.986,8.210 L9.260,8.210 L9.260,19.428 L10.986,19.428 L10.986,8.210 ZM14.437,8.210 L12.712,8.210 L12.712,19.428 L14.437,19.428 L14.437,8.210 Z"/>
</svg> 
